<svg xmlns="http://www.w3.org/2000/svg" width="1040" height="860" viewBox="0 0 1040 860">
<rect width="100%" height="100%" fill="white"/>
<text x="520.0" y="28" text-anchor="middle" font-size="21" font-family="Arial, sans-serif" font-weight="700">W7900 per-case wall-time competitiveness vs H100</text>
<text x="520.0" y="52" text-anchor="middle" font-size="13" font-family="Arial, sans-serif" fill="#555">H100 wall / W7900 wall. Values above 1.0 mean W7900 is faster on that case.</text>
<line x1="509.96" y1="64" x2="509.96" y2="812" stroke="#111" stroke-width="1" stroke-dasharray="4,4"/>
<text x="513.96" y="58" font-size="12" font-family="Arial, sans-serif">1.0x parity</text>
<text x="238" y="93" text-anchor="end" font-size="12" font-family="Arial, sans-serif">supportcase10</text>
<rect x="250" y="79" width="630.00" height="18" rx="3" fill="#4b5563"/>
<text x="888.00" y="93" font-size="12" font-family="Arial, sans-serif">2.42x</text>
<text x="238" y="125" text-anchor="end" font-size="12" font-family="Arial, sans-serif">square41</text>
<rect x="250" y="111" width="555.14" height="18" rx="3" fill="#4b5563"/>
<text x="813.14" y="125" font-size="12" font-family="Arial, sans-serif">2.14x</text>
<text x="238" y="157" text-anchor="end" font-size="12" font-family="Arial, sans-serif">datt256_lp</text>
<rect x="250" y="143" width="418.98" height="18" rx="3" fill="#4b5563"/>
<text x="676.98" y="157" font-size="12" font-family="Arial, sans-serif">1.61x</text>
<text x="238" y="189" text-anchor="end" font-size="12" font-family="Arial, sans-serif">a2864</text>
<rect x="250" y="175" width="366.84" height="18" rx="3" fill="#4b5563"/>
<text x="624.84" y="189" font-size="12" font-family="Arial, sans-serif">1.41x</text>
<text x="238" y="221" text-anchor="end" font-size="12" font-family="Arial, sans-serif">set-cover-model</text>
<rect x="250" y="207" width="335.40" height="18" rx="3" fill="#4b5563"/>
<text x="593.40" y="221" font-size="12" font-family="Arial, sans-serif">1.29x</text>
<text x="238" y="253" text-anchor="end" font-size="12" font-family="Arial, sans-serif">scpm1</text>
<rect x="250" y="239" width="324.17" height="18" rx="3" fill="#4b5563"/>
<text x="582.17" y="253" font-size="12" font-family="Arial, sans-serif">1.25x</text>
<text x="238" y="285" text-anchor="end" font-size="12" font-family="Arial, sans-serif">L2CTA3D</text>
<rect x="250" y="271" width="322.10" height="18" rx="3" fill="#4b5563"/>
<text x="580.10" y="285" font-size="12" font-family="Arial, sans-serif">1.24x</text>
<text x="238" y="317" text-anchor="end" font-size="12" font-family="Arial, sans-serif">ex10</text>
<rect x="250" y="303" width="316.80" height="18" rx="3" fill="#4b5563"/>
<text x="574.80" y="317" font-size="12" font-family="Arial, sans-serif">1.22x</text>
<text x="238" y="349" text-anchor="end" font-size="12" font-family="Arial, sans-serif">savsched1</text>
<rect x="250" y="335" width="306.48" height="18" rx="3" fill="#4b5563"/>
<text x="564.48" y="349" font-size="12" font-family="Arial, sans-serif">1.18x</text>
<text x="238" y="381" text-anchor="end" font-size="12" font-family="Arial, sans-serif">woodlands09</text>
<rect x="250" y="367" width="283.36" height="18" rx="3" fill="#4b5563"/>
<text x="541.36" y="381" font-size="12" font-family="Arial, sans-serif">1.09x</text>
<text x="238" y="413" text-anchor="end" font-size="12" font-family="Arial, sans-serif">neos-5251015</text>
<rect x="250" y="399" width="273.27" height="18" rx="3" fill="#4b5563"/>
<text x="531.27" y="413" font-size="12" font-family="Arial, sans-serif">1.05x</text>
<text x="238" y="445" text-anchor="end" font-size="12" font-family="Arial, sans-serif">graph40-40</text>
<rect x="250" y="431" width="269.53" height="18" rx="3" fill="#4b5563"/>
<text x="527.53" y="445" font-size="12" font-family="Arial, sans-serif">1.04x</text>
<text x="238" y="477" text-anchor="end" font-size="12" font-family="Arial, sans-serif">neos-5052403-cygnet</text>
<rect x="250" y="463" width="246.04" height="18" rx="3" fill="#9ca3af"/>
<text x="504.04" y="477" font-size="12" font-family="Arial, sans-serif">0.95x</text>
<text x="238" y="509" text-anchor="end" font-size="12" font-family="Arial, sans-serif">Primal2_1000</text>
<rect x="250" y="495" width="238.21" height="18" rx="3" fill="#9ca3af"/>
<text x="496.21" y="509" font-size="12" font-family="Arial, sans-serif">0.92x</text>
<text x="238" y="541" text-anchor="end" font-size="12" font-family="Arial, sans-serif">irish-electricity</text>
<rect x="250" y="527" width="206.06" height="18" rx="3" fill="#9ca3af"/>
<text x="464.06" y="541" font-size="12" font-family="Arial, sans-serif">0.79x</text>
<text x="238" y="573" text-anchor="end" font-size="12" font-family="Arial, sans-serif">qap15</text>
<rect x="250" y="559" width="191.22" height="18" rx="3" fill="#9ca3af"/>
<text x="449.22" y="573" font-size="12" font-family="Arial, sans-serif">0.74x</text>
<text x="238" y="605" text-anchor="end" font-size="12" font-family="Arial, sans-serif">thk_48</text>
<rect x="250" y="591" width="182.63" height="18" rx="3" fill="#9ca3af"/>
<text x="440.63" y="605" font-size="12" font-family="Arial, sans-serif">0.70x</text>
<text x="238" y="637" text-anchor="end" font-size="12" font-family="Arial, sans-serif">s250r10</text>
<rect x="250" y="623" width="177.84" height="18" rx="3" fill="#9ca3af"/>
<text x="435.84" y="637" font-size="12" font-family="Arial, sans-serif">0.68x</text>
<text x="238" y="669" text-anchor="end" font-size="12" font-family="Arial, sans-serif">neos-3025225</text>
<rect x="250" y="655" width="121.22" height="18" rx="3" fill="#9ca3af"/>
<text x="379.22" y="669" font-size="12" font-family="Arial, sans-serif">0.47x</text>
<text x="238" y="701" text-anchor="end" font-size="12" font-family="Arial, sans-serif">tpl-tub-ws1617</text>
<rect x="250" y="687" width="64.46" height="18" rx="3" fill="#9ca3af"/>
<text x="322.46" y="701" font-size="12" font-family="Arial, sans-serif">0.25x</text>
<text x="238" y="733" text-anchor="end" font-size="12" font-family="Arial, sans-serif">thk_63</text>
<rect x="250" y="719" width="61.62" height="18" rx="3" fill="#9ca3af"/>
<text x="319.62" y="733" font-size="12" font-family="Arial, sans-serif">0.24x</text>
<text x="238" y="765" text-anchor="end" font-size="12" font-family="Arial, sans-serif">rmine15</text>
<rect x="250" y="751" width="37.11" height="18" rx="3" fill="#9ca3af"/>
<text x="295.11" y="765" font-size="12" font-family="Arial, sans-serif">0.14x</text>
<text x="238" y="797" text-anchor="end" font-size="12" font-family="Arial, sans-serif">s100</text>
<rect x="250" y="783" width="33.52" height="18" rx="3" fill="#9ca3af"/>
<text x="291.52" y="797" font-size="12" font-family="Arial, sans-serif">0.13x</text>
<text x="250" y="842" font-size="12" font-family="Arial, sans-serif" fill="#555">This chart highlights case-level wins/near-parity that are hidden by aggregate totals.</text>
</svg>
